<svg width="32" height="32" viewBox="0 0 32 32" fill="none" xmlns="http://www.w3.org/2000/svg">
<path d="M16.0004 2.72217C8.63664 2.72217 2.66699 8.69182 2.66699 16.0556C2.66699 22.66 7.47395 28.1296 13.7767 29.1887V18.8373H10.5603V15.1122H13.7767V12.3655C13.7767 9.17852 15.7232 7.4418 18.5666 7.4418C19.9284 7.4418 21.0988 7.54328 21.4385 7.58798V10.9192L19.4664 10.9202C17.9204 10.9202 17.6223 11.6547 17.6223 12.7329V15.1103H21.3112L20.8301 18.8354H17.6223V29.2778C24.2192 28.4749 29.3337 22.866 29.3337 16.0518C29.3337 8.69182 23.364 2.72217 16.0004 2.72217Z" fill="white"/>
</svg>
