<svg width="32" height="32" viewBox="0 0 32 32" fill="none" xmlns="http://www.w3.org/2000/svg">
<path d="M16.0081 5.06912C19.5727 5.06912 19.9949 5.08475 21.3967 5.14729C22.6996 5.20462 23.4031 5.4235 23.8721 5.60589C24.4923 5.84562 24.9405 6.13746 25.4043 6.60127C25.8733 7.07029 26.1599 7.51326 26.3996 8.13342C26.582 8.60244 26.8009 9.31119 26.8583 10.6088C26.9208 12.0159 26.9364 12.438 26.9364 15.9974C26.9364 19.562 26.9208 19.9841 26.8583 21.386C26.8009 22.6888 26.582 23.3924 26.3996 23.8614C26.1599 24.4815 25.8681 24.9297 25.4043 25.3935C24.9352 25.8626 24.4923 26.1492 23.8721 26.3889C23.4031 26.5713 22.6944 26.7902 21.3967 26.8475C19.9896 26.91 19.5675 26.9257 16.0081 26.9257C12.4436 26.9257 12.0214 26.91 10.6196 26.8475C9.31672 26.7902 8.61318 26.5713 8.14416 26.3889C7.52401 26.1492 7.07583 25.8573 6.61201 25.3935C6.14299 24.9245 5.85636 24.4815 5.61664 23.8614C5.43424 23.3924 5.21536 22.6836 5.15804 21.386C5.0955 19.9789 5.07986 19.5568 5.07986 15.9974C5.07986 12.4328 5.0955 12.0107 5.15804 10.6088C5.21536 9.30598 5.43424 8.60244 5.61664 8.13342C5.85636 7.51326 6.1482 7.06508 6.61201 6.60127C7.08104 6.13224 7.52401 5.84562 8.14416 5.60589C8.61318 5.4235 9.32193 5.20462 10.6196 5.14729C12.0214 5.08475 12.4436 5.06912 16.0081 5.06912ZM16.0081 2.66667C12.3862 2.66667 11.9328 2.68231 10.5101 2.74484C9.09263 2.80738 8.1181 3.03668 7.27386 3.365C6.39313 3.70895 5.64791 4.16234 4.90789 4.90757C4.16266 5.64758 3.70927 6.39281 3.36532 7.26833C3.037 8.11778 2.8077 9.0871 2.74516 10.5046C2.68263 11.9325 2.66699 12.3859 2.66699 16.0078C2.66699 19.6297 2.68263 20.0831 2.74516 21.5058C2.8077 22.9233 3.037 23.8979 3.36532 24.7421C3.70927 25.6228 4.16266 26.3681 4.90789 27.1081C5.64791 27.8481 6.39313 28.3067 7.26865 28.6454C8.1181 28.9737 9.08742 29.203 10.5049 29.2656C11.9276 29.3281 12.381 29.3438 16.0029 29.3438C19.6248 29.3438 20.0782 29.3281 21.5009 29.2656C22.9184 29.203 23.893 28.9737 24.7372 28.6454C25.6127 28.3067 26.358 27.8481 27.098 27.1081C27.838 26.3681 28.2966 25.6228 28.6353 24.7473C28.9637 23.8979 29.193 22.9285 29.2555 21.511C29.318 20.0883 29.3337 19.6349 29.3337 16.013C29.3337 12.3911 29.318 11.9377 29.2555 10.515C29.193 9.09752 28.9637 8.12299 28.6353 7.27875C28.307 6.39281 27.8536 5.64758 27.1084 4.90757C26.3684 4.16755 25.6232 3.70895 24.7476 3.37021C23.8982 3.04189 22.9289 2.81259 21.5114 2.75005C20.0834 2.68231 19.6301 2.66667 16.0081 2.66667Z" fill="white"/>
<path d="M16.0082 9.15485C12.2248 9.15485 9.15527 12.2244 9.15527 16.0078C9.15527 19.7913 12.2248 22.8608 16.0082 22.8608C19.7917 22.8608 22.8612 19.7913 22.8612 16.0078C22.8612 12.2244 19.7917 9.15485 16.0082 9.15485ZM16.0082 20.4531C13.5537 20.4531 11.5629 18.4624 11.5629 16.0078C11.5629 13.5533 13.5537 11.5625 16.0082 11.5625C18.4628 11.5625 20.4536 13.5533 20.4536 16.0078C20.4536 18.4624 18.4628 20.4531 16.0082 20.4531Z" fill="white"/>
<path d="M24.732 8.8838C24.732 9.76974 24.0128 10.4837 23.1321 10.4837C22.2462 10.4837 21.5322 9.76453 21.5322 8.8838C21.5322 7.99787 22.2514 7.28391 23.1321 7.28391C24.0128 7.28391 24.732 8.00308 24.732 8.8838Z" fill="white"/>
</svg>
