<svg width="32" height="32" viewBox="0 0 32 32" fill="none" xmlns="http://www.w3.org/2000/svg">
<path d="M10.561 27.8342C21.6274 27.8342 27.682 18.6635 27.682 10.7132C27.682 10.4554 27.6763 10.1918 27.6648 9.934C28.8426 9.08224 29.8591 8.02721 30.6663 6.81848C29.5694 7.30652 28.4048 7.62525 27.2122 7.76379C28.4679 7.01112 29.4081 5.82869 29.8585 4.43572C28.6772 5.1358 27.3854 5.62964 26.0383 5.89609C25.1307 4.93169 23.9307 4.29315 22.6237 4.07918C21.3168 3.86521 19.9758 4.08773 18.808 4.71235C17.6403 5.33696 16.7108 6.32887 16.1633 7.53472C15.6158 8.74057 15.4808 10.0932 15.7791 11.3835C13.3872 11.2635 11.0472 10.6421 8.91076 9.55968C6.77437 8.47728 4.8893 6.95798 3.37775 5.1003C2.6095 6.42486 2.37441 7.99224 2.72027 9.4839C3.06612 10.9756 3.96697 12.2796 5.23973 13.1309C4.28422 13.1005 3.34964 12.8433 2.51322 12.3804V12.4548C2.51236 13.8449 2.99291 15.1923 3.87316 16.2681C4.75342 17.3438 5.97907 18.0816 7.34176 18.3559C6.45663 18.5981 5.52765 18.6333 4.62671 18.459C5.01123 19.6544 5.75937 20.7 6.76673 21.4497C7.77408 22.1995 8.99038 22.6161 10.2459 22.6413C8.11442 24.3156 5.48144 25.2237 2.77103 25.2194C2.29036 25.2187 1.81016 25.1892 1.33301 25.1312C4.0865 26.8977 7.28955 27.8359 10.561 27.8342Z" fill="white"/>
</svg>
