<svg width="32" height="32" viewBox="0 0 32 32" fill="none" xmlns="http://www.w3.org/2000/svg">
<path d="M30.3742 9.78489C30.3742 9.78489 30.0877 7.7625 29.2054 6.87447C28.0882 5.70572 26.8393 5.69999 26.2663 5.63124C22.1643 5.33333 16.0054 5.33333 16.0054 5.33333H15.9939C15.9939 5.33333 9.83509 5.33333 5.73301 5.63124C5.16009 5.69999 3.91113 5.70572 2.79395 6.87447C1.91165 7.7625 1.63092 9.78489 1.63092 9.78489C1.63092 9.78489 1.33301 12.1625 1.33301 14.5344V16.7573C1.33301 19.1292 1.6252 21.5068 1.6252 21.5068C1.6252 21.5068 1.91165 23.5292 2.78822 24.4172C3.9054 25.5859 5.37207 25.5458 6.0252 25.6719C8.37415 25.8953 15.9997 25.9641 15.9997 25.9641C15.9997 25.9641 22.1643 25.9526 26.2663 25.6604C26.8393 25.5917 28.0882 25.5859 29.2054 24.4172C30.0877 23.5292 30.3742 21.5068 30.3742 21.5068C30.3742 21.5068 30.6663 19.1349 30.6663 16.7573V14.5344C30.6663 12.1625 30.3742 9.78489 30.3742 9.78489ZM12.9689 19.4557V11.2115L20.8924 15.3479L12.9689 19.4557Z" fill="white"/>
</svg>
