<svg width="32" height="32" viewBox="0 0 32 32" fill="none" xmlns="http://www.w3.org/2000/svg">
<circle cx="16" cy="16" r="15.5" fill="#FF9100" stroke="white"/>
<g clip-path="url(#clip0_10_1713)">
<path d="M16.0007 4.33398C9.56065 4.33398 4.33398 9.56065 4.33398 16.0007C4.33398 22.4407 9.56065 27.6673 16.0007 27.6673C22.4407 27.6673 27.6673 22.4407 27.6673 16.0007C27.6673 9.56065 22.4407 4.33398 16.0007 4.33398ZM16.0007 7.83398C17.9373 7.83398 19.5007 9.39732 19.5007 11.334C19.5007 13.2707 17.9373 14.834 16.0007 14.834C14.064 14.834 12.5007 13.2707 12.5007 11.334C12.5007 9.39732 14.064 7.83398 16.0007 7.83398ZM16.0007 24.4007C13.084 24.4007 10.5057 22.9073 9.00065 20.644C9.03565 18.3223 13.6673 17.0507 16.0007 17.0507C18.3223 17.0507 22.9657 18.3223 23.0007 20.644C21.4957 22.9073 18.9173 24.4007 16.0007 24.4007Z" fill="white"/>
</g>
<defs>
<clipPath id="clip0_10_1713">
<rect width="28" height="28" fill="white" transform="translate(2 2)"/>
</clipPath>
</defs>
</svg>
