<svg width="252" height="109" viewBox="0 0 252 109" fill="none" xmlns="http://www.w3.org/2000/svg">
<path d="M16.2639 89.3013C26.961 93.0235 37.2402 96.5526 47.4987 100.118C49.5473 100.819 50.9922 101.317 53.4154 102.62C55.2252 103.568 59.0197 105.663 57.5907 107.388C56.2619 108.689 55.1525 109.444 51.4715 108.57C41.9775 106.264 32.9032 102.565 23.8802 98.9428C15.9148 95.7393 9.88985 93.1749 3.00998 89.9245C-0.203017 88.4062 -0.55489 86.1823 1.43095 83.5761C3.21404 81.2377 5.00272 78.8063 7.1924 76.8469C15.0487 69.7395 23.0589 62.8654 31.0387 55.8774C32.0245 55.0031 32.741 54.2621 34.0628 53.3894C35.6747 52.3475 36.7897 51.4997 38.0913 52.8285C39.3416 54.0796 38.0194 56.203 37.1418 57.1397C29.9794 65.1288 14.9297 81.3622 14.3256 82.4087C20.8026 82.1067 26.8035 81.9629 32.8059 81.4831C74.5907 77.943 115.769 71.4542 154.896 55.266C185.87 42.4525 214.791 26.193 241.178 5.48799C242.745 4.27528 244.434 3.18198 246.082 2.16086C248.295 0.744308 249.698 0.399103 250.509 1.4932C251.755 3.75207 250.498 5.09537 249.589 6.25416C247.806 8.59256 245.502 10.5824 243.276 12.5209C213.233 38.1401 178.755 55.8581 141.801 69.1152C103.873 82.7247 64.4711 87.304 24.5415 88.5474C22.433 88.5328 17.2163 88.9851 16.2639 89.3013Z" fill="#1565C0"/>
</svg>
