<svg width="303" height="106" viewBox="0 0 303 106" fill="none" xmlns="http://www.w3.org/2000/svg">
<path d="M300.25 40.1766C300.769 46.1347 297.718 52.5086 290.868 59.0178C284.04 65.5049 273.739 71.819 260.606 77.5589C234.366 89.028 197.355 97.9756 155.811 101.594C114.268 105.213 76.2662 102.799 48.4383 96.0388C34.5113 92.6558 23.2733 88.2177 15.4272 83.0087C7.55445 77.7819 3.44812 72.0314 2.92917 66.0733C2.41022 60.1152 5.46052 53.7414 12.3111 47.2322C19.1385 40.7451 29.4399 34.4309 42.5723 28.691C68.8125 17.222 105.824 8.27432 147.368 4.65587C188.911 1.03742 226.913 3.45144 254.74 10.2112C268.668 13.5942 279.906 18.0322 287.752 23.2413C295.624 28.4681 299.731 34.2186 300.25 40.1766Z" stroke="#FF9100" stroke-width="5"/>
</svg>
