<svg width="155" height="101" viewBox="0 0 155 101" fill="none" xmlns="http://www.w3.org/2000/svg">
<path d="M142.635 91.9016C129.581 84.4294 116.553 76.9416 103.422 69.5852C102.516 69.0697 100.808 69.339 99.7677 69.8323C75.0209 81.7556 50.9675 79.9888 27.9424 65.4846C24.1145 63.0736 21.0046 59.4242 18.7593 54.6667C15.7839 48.3963 18.3521 41.8626 24.7001 39.0215C30.2492 36.5342 36.0142 36.7163 41.8166 37.5216C54.6575 39.3499 66.6302 44.0796 78.4046 49.2103C85.8686 52.4593 93.123 56.1518 100.704 59.7274C102.752 56.5745 102.743 51.78 100.675 48.8187C96.7785 43.1873 93.8065 41.1419 89.4584 37.7058C75.8157 26.9193 60.1309 19.8551 43.5447 15.1383C31.2003 11.6262 18.6175 9.00412 6.13692 6.0006C5.05062 5.73223 3.91472 5.56414 2.90902 5.24924C1.33689 4.75986 0.355824 3.92923 0.45356 2.5474C0.316707 1.19354 2.29569 0.588297 3.37977 0.356445C5.16349 -0.0285948 7.0796 -0.0602091 8.87386 0.193459C37.215 3.92673 64.3222 11.4172 88.3627 27.556C93.6348 31.1034 98.4296 35.4995 102.86 40.0703C109.203 46.6528 111.543 54.3651 106.791 63.198C118.961 70.7511 130.958 78.1896 143.17 85.7541C140.843 81.7242 138.641 77.9091 136.422 74.0673C136.05 73.4225 135.597 72.8242 135.279 72.1484C134.405 70.3245 132.722 68.2157 135.154 66.5964C137.533 65.0082 138.909 67.33 139.82 68.8459C144.491 76.5017 149.097 84.2309 153.391 92.1038C155.141 95.3206 153.93 98.0619 150.337 98.4165C139.953 99.5401 129.47 100.183 119.026 100.768C118.056 100.827 116.11 100.123 115.978 98.1577C116.025 96.626 117.868 95.5982 118.956 95.4355C125.528 94.4712 132.158 93.7953 138.785 93.05C139.958 92.9101 141.162 92.824 142.35 92.7109C144.36 92.8405 143.658 92.4935 142.635 91.9016ZM95.221 65.8661C96.2347 65.3883 94.1344 64.6666 93.8336 64.5178C78.0918 56.7343 62.1444 49.4635 44.8702 45.7887C40.2521 44.8011 35.2912 44.5846 30.5796 45.0481C24.3219 45.6878 22.4848 50.5097 26.5966 55.3359C29.2579 58.4563 32.5071 61.4163 36.0868 63.3974C51.2584 71.8684 72.2175 73.4874 84.4035 69.9623C89.0456 68.5718 90.174 67.9203 95.221 65.8661Z" fill="#1565C0"/>
</svg>
