<svg width="32" height="32" viewBox="0 0 32 32" fill="none" xmlns="http://www.w3.org/2000/svg">
<path d="M16.0003 2.66675C8.63574 2.66675 2.66699 8.6355 2.66699 16.0001C2.66699 21.6511 6.18262 26.474 11.141 28.4167C11.0264 27.3595 10.917 25.7449 11.1878 24.5938C11.4326 23.5522 12.7503 17.9688 12.7503 17.9688C12.7503 17.9688 12.3493 17.172 12.3493 15.9897C12.3493 14.1355 13.4222 12.7501 14.7607 12.7501C15.8962 12.7501 16.4482 13.6042 16.4482 14.6303C16.4482 15.7761 15.7191 17.4845 15.3441 19.0678C15.0316 20.3959 16.0107 21.4792 17.318 21.4792C19.6878 21.4792 21.5107 18.9792 21.5107 15.3751C21.5107 12.1824 19.2191 9.948 15.943 9.948C12.1514 9.948 9.9222 12.7917 9.9222 15.7345C9.9222 16.8803 10.3649 18.1095 10.917 18.7761C11.0264 18.9063 11.042 19.0261 11.0107 19.1563C10.9118 19.5782 10.6826 20.4845 10.641 20.6667C10.5837 20.9115 10.4482 20.9636 10.193 20.8438C8.52637 20.0678 7.4847 17.6355 7.4847 15.6772C7.4847 11.4688 10.542 7.60946 16.292 7.60946C20.917 7.60946 24.5107 10.9063 24.5107 15.3126C24.5107 19.9063 21.6149 23.6042 17.5941 23.6042C16.2451 23.6042 14.9743 22.9011 14.5368 22.073C14.5368 22.073 13.8701 24.6199 13.7087 25.2449C13.4066 26.4011 12.5941 27.8542 12.0524 28.7397C13.3024 29.1251 14.6253 29.3334 16.0003 29.3334C23.3649 29.3334 29.3337 23.3647 29.3337 16.0001C29.3337 8.6355 23.3649 2.66675 16.0003 2.66675Z" fill="#757575"/>
</svg>
