<svg width="79" height="111" viewBox="0 0 79 111" fill="none" xmlns="http://www.w3.org/2000/svg">
<path fill-rule="evenodd" clip-rule="evenodd" d="M15.7031 110.148C17.1646 110.139 18.6398 110.062 20.0673 109.806C25.1001 108.872 41.7597 104.885 45.0458 103.845C46.0555 103.575 47.1361 103.094 47.9453 102.432C49.3796 101.252 48.9892 99.3197 47.1962 98.6862C46.5583 98.4434 45.7819 98.3968 45.0671 98.461C42.99 98.6674 40.9288 98.9333 38.8994 99.3179C32.7896 100.509 26.658 101.739 20.588 103.079C18.5745 103.523 16.611 104.272 14.685 105.042C13.248 105.618 12.4458 107.138 12.8373 108.243C13.3141 109.547 14.3981 110.148 15.7031 110.148ZM44.3725 58.9268C43.8866 58.935 43.432 58.951 42.9982 58.9663L42.9981 58.9663C42.0741 58.9989 41.2442 59.0281 40.4059 58.9712C27.9686 58.1662 16.1498 54.6812 4.60518 50.1997C3.25397 49.6705 1.90645 48.9177 0.88345 47.9505C0.330318 47.4303 0.0555254 46.1672 0.250599 45.3511C0.404329 44.737 1.459 44.0407 2.14412 43.9844C3.44702 43.8581 4.84327 43.9614 6.13878 44.2826C14.6903 46.3834 23.2201 48.5218 31.7362 50.7276C34.2272 51.3801 36.7147 52.0921 39.1976 52.8027L39.1983 52.8029C39.8881 53.0003 40.5776 53.1977 41.2666 53.3936C42.3304 53.6814 43.3804 54.0366 44.379 54.4375C45.5122 54.8658 46.3549 55.754 46.0098 56.9604C45.9875 57.0366 45.9664 57.113 45.9454 57.1892L45.9453 57.1897C45.7471 57.9084 45.5535 58.6104 44.3725 58.9268ZM77.4969 6.58826L77.497 6.58909L77.497 6.58931C77.6243 7.66187 77.7591 8.79811 77.8079 9.92919L77.808 9.93144L77.8081 9.93318C78.0775 16.6389 78.3468 23.3445 78.5489 30.0364C78.5882 31.4899 78.3821 32.9774 78.055 34.37C77.6315 36.2339 76.5652 37.1244 75.1573 37.2152C73.7494 37.306 72.6315 36.4597 72.1005 34.5969C71.7286 33.328 71.3923 31.954 71.363 30.6569C71.2419 22.1279 71.1802 13.5829 71.1562 5.05963C71.155 4.10512 71.3241 3.07317 71.735 2.23105C72.7286 0.118837 75.1583 0.0406829 76.3113 2.08695C76.5886 2.59607 76.7599 3.18444 76.9493 3.83489C77.0595 4.2135 77.1759 4.61315 77.3228 5.03046C77.3711 5.52789 77.433 6.05006 77.4969 6.58826Z" fill="#F22509"/>
</svg>
