<svg width="18" height="18" viewBox="0 0 18 18" fill="none" xmlns="http://www.w3.org/2000/svg">
<g clip-path="url(#clip0_16_2)">
<path d="M0.66418 18.0001C0.494117 18.0001 0.32451 17.9354 0.194569 17.8059C-0.0648564 17.5465 -0.0648564 17.1261 0.194569 16.8667L16.8667 0.194569C17.1261 -0.0648564 17.546 -0.0648564 17.8054 0.194569C18.0649 0.453995 18.0649 0.874366 17.8054 1.13379L1.13333 17.8059C1.00385 17.9349 0.834243 18.0001 0.66418 18.0001Z" fill="black"/>
<path d="M17.3326 18.0001C17.1626 18.0001 16.9925 17.9354 16.863 17.8054L0.194569 1.13379C-0.0648564 0.874366 -0.0648564 0.453995 0.194569 0.194569C0.453995 -0.0648564 0.874365 -0.0648564 1.13334 0.194569L17.8013 16.8667C18.0608 17.1261 18.0608 17.5465 17.8013 17.8059C17.6723 17.9349 17.5022 18.0001 17.3326 18.0001Z" fill="black"/>
</g>
<defs>
<clipPath id="clip0_16_2">
<rect width="18" height="18" fill="white"/>
</clipPath>
</defs>
</svg>
