<svg width="40" height="40" viewBox="0 0 40 40" fill="none" xmlns="http://www.w3.org/2000/svg">
<path d="M20 0C8.95599 0 0 8.95599 0 20C0 31.044 8.95599 40 20 40C31.044 40 40 31.044 40 20C40 8.95599 31.044 0 20 0ZM22.5803 31.2943C17.6587 31.3791 15.7944 27.7884 15.7944 25.2609V17.8796H13.5077V14.9615C16.9354 13.7256 17.7594 10.6342 17.9529 8.87299C17.9663 8.75183 18.0615 8.70422 18.1158 8.70422H21.4243V14.4592H25.9457V17.8799H21.4087V24.9127C21.4233 25.8688 21.7743 27.1878 23.5831 27.1393C24.1821 27.1243 24.9854 26.9501 25.4056 26.7496L26.492 29.9707C26.0849 30.571 24.2407 31.2659 22.5803 31.2943Z" fill="#E82F31"/>
</svg>
