<svg width="237" height="55" viewBox="0 0 237 55" fill="none" xmlns="http://www.w3.org/2000/svg">
<path d="M0 27.2574L37.0821 54.7938L42.3882 8.91154L0 27.2574ZM234.737 7.6033C236.727 6.64414 237.562 4.25332 236.603 2.26328C235.644 0.273227 233.253 -0.562469 231.263 0.396698L234.737 7.6033ZM35.4509 35.3814C96.1059 40.2479 145.833 33.3475 180.435 25.2122C197.736 21.1444 211.259 16.7671 220.482 13.3951C225.093 11.7089 228.63 10.2738 231.028 9.25392C232.226 8.74395 233.14 8.33775 233.761 8.05582C234.072 7.91486 234.309 7.80496 234.472 7.72868C234.553 7.69055 234.616 7.66082 234.66 7.63981C234.682 7.62931 234.7 7.62099 234.713 7.61489C234.719 7.61184 234.724 7.60935 234.728 7.60742C234.73 7.60645 234.732 7.60542 234.733 7.60494C234.735 7.60405 234.737 7.6033 233 4C231.263 0.396698 231.264 0.396233 231.265 0.395909C231.265 0.395989 231.265 0.395806 231.265 0.395965C231.264 0.396283 231.262 0.397162 231.259 0.398595C231.253 0.401462 231.243 0.406551 231.227 0.413821C231.197 0.42836 231.148 0.451625 231.08 0.483297C230.945 0.546642 230.735 0.643611 230.453 0.771657C229.889 1.02775 229.034 1.40813 227.896 1.89241C225.619 2.86101 222.21 4.24505 217.735 5.88155C208.782 9.15473 195.565 13.4366 178.604 17.4245C144.68 25.4005 95.793 32.1971 36.0907 27.407L35.4509 35.3814Z" fill="#FF9100"/>
</svg>
