<svg width="199" height="47" viewBox="0 0 199 47" fill="none" xmlns="http://www.w3.org/2000/svg">
<path d="M0 24.0002L40.3561 46.4661L39.6341 0.283754L0 24.0002ZM36.0218 27.4373C98.6786 27.1395 138.715 30.7722 163.012 34.4497C175.158 36.2881 183.358 38.1359 188.477 39.5048C191.035 40.1891 192.822 40.7532 193.944 41.1358C194.505 41.3271 194.9 41.473 195.142 41.5657C195.264 41.612 195.346 41.6451 195.393 41.6639C195.416 41.6733 195.43 41.6791 195.435 41.6813C195.438 41.6824 195.438 41.6825 195.436 41.6817C195.436 41.6814 195.434 41.6807 195.432 41.6799C195.431 41.6794 195.429 41.6786 195.429 41.6784C195.427 41.6775 195.424 41.6766 197 38C198.576 34.3234 198.573 34.3224 198.571 34.3212C198.57 34.3208 198.567 34.3196 198.565 34.3187C198.561 34.317 198.556 34.315 198.551 34.3127C198.54 34.3083 198.527 34.3029 198.512 34.2967C198.483 34.2843 198.444 34.2684 198.397 34.2492C198.301 34.2106 198.17 34.1587 198.002 34.0941C197.665 33.9651 197.177 33.7858 196.525 33.5637C195.223 33.1196 193.264 32.504 190.544 31.7764C185.104 30.3215 176.609 28.4167 164.209 26.5398C139.413 22.7867 98.9511 19.1381 35.9838 19.4374L36.0218 27.4373Z" fill="#FF9100"/>
</svg>
