<svg width="115" height="50" viewBox="0 0 115 50" fill="none" xmlns="http://www.w3.org/2000/svg">
<path d="M106.899 9.24951C102.05 7.56235 97.3912 5.9627 92.7413 4.34669C91.8127 4.02865 91.1578 3.80319 90.0594 3.21265C89.2391 2.78265 87.5191 1.83327 88.1668 1.05139C88.7692 0.461399 89.272 0.119279 90.9405 0.515578C95.2439 1.56079 99.357 3.23766 103.447 4.87928C107.057 6.33136 109.788 7.49373 112.907 8.96704C114.363 9.65522 114.523 10.6632 113.622 11.8446C112.814 12.9045 112.004 14.0066 111.011 14.8947C107.45 18.1163 103.819 21.2322 100.202 24.3996C99.7553 24.7959 99.4305 25.1318 98.8314 25.5273C98.1008 25.9996 97.5954 26.3839 97.0054 25.7816C96.4387 25.2145 97.038 24.252 97.4358 23.8274C100.682 20.2062 107.504 12.8481 107.778 12.3737C104.842 12.5106 102.122 12.5758 99.4011 12.7933C80.4612 14.3979 61.7965 17.3391 44.0609 24.6767C30.0217 30.4847 16.9126 37.8547 4.95169 47.2397C4.24178 47.7894 3.4759 48.285 2.72889 48.7478C1.72575 49.3899 1.09021 49.5464 0.722292 49.0505C0.157603 48.0266 0.727222 47.4177 1.13951 46.8925C1.94774 45.8325 2.99186 44.9306 4.00074 44.0519C17.6184 32.4395 33.2464 24.4084 49.9968 18.3993C67.1884 12.2305 85.0482 10.1548 103.147 9.59122C104.103 9.59782 106.467 9.39283 106.899 9.24951Z" fill="#1565C0"/>
</svg>
