<svg width="96" height="18" viewBox="0 0 96 18" fill="none" xmlns="http://www.w3.org/2000/svg">
	<path d="M9 12.9525L13.635 15.75L12.405 10.4775L16.5 6.93L11.1075 6.4725L9 1.5L6.8925 6.4725L1.5 6.93L5.595 10.4775L4.365 15.75L9 12.9525Z" fill="#FFFFFF"/>
	<path d="M29 12.9525L33.635 15.75L32.405 10.4775L36.5 6.93L31.1075 6.4725L29 1.5L26.8925 6.4725L21.5 6.93L25.595 10.4775L24.365 15.75L29 12.9525Z" fill="#FFFFFF"/>
	<path d="M49 12.9525L53.635 15.75L52.405 10.4775L56.5 6.93L51.1075 6.4725L49 1.5L46.8925 6.4725L41.5 6.93L45.595 10.4775L44.365 15.75L49 12.9525Z" fill="#FFFFFF"/>
	<path d="M69 12.9525L73.635 15.75L72.405 10.4775L76.5 6.93L71.1075 6.4725L69 1.5L66.8925 6.4725L61.5 6.93L65.595 10.4775L64.365 15.75L69 12.9525Z" fill="#FFFFFF"/>
	<path d="M87 12.9525L91.635 15.75L90.405 10.4775L94.5 6.93L89.1075 6.4725L87 1.5L84.8925 6.4725L79.5 6.93L83.595 10.4775L82.365 15.75L87 12.9525Z" fill="#FFFFFF"/>
</svg>
