<svg width="163" height="151" viewBox="0 0 163 151" fill="none" xmlns="http://www.w3.org/2000/svg">
<path d="M62.5826 137.497C64.1147 131.899 65.2932 127.126 66.7369 122.441C69.1528 114.486 71.8929 106.737 77.5203 100.285C83.236 93.7444 90.366 91.2695 98.5272 93.656C103.536 95.1291 108.132 97.9575 112.817 100.344C114.643 101.287 116.234 102.76 118.739 104.557C117.796 100.079 117 96.5728 116.352 93.0373C114.732 84.4047 112.758 75.831 111.727 67.1395C110.253 55.2365 116.264 48.1065 128.285 47.0459C132.999 46.6334 137.86 47.37 142.662 47.6351C144.106 47.7235 145.52 48.0181 147.229 48.2538C142.81 41.1828 138.508 34.5242 134.501 27.7477C125.162 11.9262 135.68 2.2919 148.349 0.641982C151.737 0.200037 155.302 0.583062 158.749 0.907151C161.047 1.20178 162.933 2.67492 162.579 5.20872C162.285 7.50681 160.222 8.15499 158.042 8.21392C155.891 8.30231 153.711 8.24338 151.619 8.56747C149.174 8.95049 146.699 9.36297 144.371 10.2174C137.831 12.6333 135.886 16.6992 138.656 23.1221C140.6 27.6594 143.222 31.9315 145.756 36.1741C148.113 40.1221 150.676 43.9817 153.24 47.8414C154.536 49.8448 155.773 51.9072 154.536 54.2642C153.122 56.9748 150.441 56.7686 147.966 56.5918C144.813 56.3856 141.72 55.7079 138.567 55.6785C134.59 55.5901 130.583 55.5901 126.694 56.1204C121.42 56.857 119.357 59.1551 119.387 64.4878C119.416 69.5849 119.74 74.7998 120.595 79.8379C122.48 90.6213 124.72 101.287 126.988 111.982C127.519 114.516 127.489 116.666 125.279 118.169C123.188 119.613 121.184 118.729 119.328 117.344C116.028 114.869 112.787 112.218 109.37 109.919C106.364 107.916 103.241 105.912 99.9414 104.498C91.1321 100.698 85.2395 102.583 79.73 110.391C75.5757 116.254 72.6884 122.736 70.626 129.571C69.1234 134.491 67.9449 139.5 66.6485 144.45C65.9709 147.072 65.2637 149.783 61.9934 150.166C58.8998 150.49 57.2499 148.251 55.7473 145.982C55.1285 145.01 54.6571 143.949 54.1563 142.918C53.184 140.826 52.0644 138.764 51.2984 136.583C45.4942 120.408 32.8252 114.987 17.0037 114.781C14.0869 114.751 11.1406 115.635 8.2238 116.195C6.78013 116.46 5.36592 117.167 3.92224 117.256C2.89104 117.344 1.32951 117.02 0.917038 116.313C0.44563 115.547 0.799183 114.015 1.12328 113.101C1.85984 111.127 3.86332 109.477 5.69001 108.711C9.31394 107.209 13.1735 105.883 17.0332 105.5C25.5774 104.616 33.8564 106.354 41.8408 109.566C48.6467 112.306 53.2429 117.432 56.4838 123.796C58.5462 127.98 60.2551 132.282 62.5826 137.497Z" fill="#FF9100"/>
</svg>
