<svg width="98" height="124" viewBox="0 0 98 124" fill="none" xmlns="http://www.w3.org/2000/svg">
<path d="M40.2929 1.70711C40.9229 1.07714 42 1.52331 42 2.41421L42 20C42 20.5523 41.5523 21 41 21L23.4142 21C22.5233 21 22.0771 19.9229 22.7071 19.2929L40.2929 1.70711Z" fill="#E5ECF1"/>
<path d="M43.7071 40.2929C43.0771 40.9229 42 40.4767 42 39.5858L42 22C42 21.4477 42.4477 21 43 21L60.5858 21C61.4767 21 61.9229 22.0771 61.2929 22.7071L43.7071 40.2929Z" fill="#E5ECF1"/>
<path d="M22.7071 104.707C22.0771 104.077 22.5233 103 23.4142 103H41C41.5523 103 42 103.448 42 104V121.586C42 122.477 40.9229 122.923 40.2929 122.293L22.7071 104.707Z" fill="#E5ECF1"/>
<path d="M61.2929 101.293C61.9229 101.923 61.4767 103 60.5858 103H43C42.4477 103 42 102.552 42 102V84.4142C42 83.5233 43.0771 83.0771 43.7071 83.7071L61.2929 101.293Z" fill="#E5ECF1"/>
<mask id="path-5-inside-1_749_658" fill="white">
<rect x="42" y="62" width="57.5796" height="57.5796" rx="1" transform="rotate(-45 42 62)"/>
</mask>
<rect x="42" y="62" width="57.5796" height="57.5796" rx="1" transform="rotate(-45 42 62)" stroke="#E5ECF1" stroke-width="30" mask="url(#path-5-inside-1_749_658)"/>
<path d="M20.3081 84L2.38553 84C1.49871 84 1.05071 82.9313 1.67244 82.2989L20.579 63.0686C20.9633 62.6777 20.9613 62.0503 20.5746 61.6619L1.69839 42.7056C1.07049 42.075 1.51711 41 2.40699 41L20.3118 41C20.5778 41 20.8328 41.1059 21.0204 41.2944L41.3018 61.6619C41.6886 62.0503 41.6906 62.6777 41.3063 63.0686L21.0212 83.7011C20.8332 83.8923 20.5762 84 20.3081 84Z" fill="#E5ECF1"/>
</svg>
