<svg width="137" height="147" viewBox="0 0 137 147" fill="none" xmlns="http://www.w3.org/2000/svg">
<path d="M75.7071 43.7071C75.0771 43.0771 75.5233 42 76.4142 42H94C94.5523 42 95 42.4477 95 43V60.5858C95 61.4767 93.9229 61.9229 93.2929 61.2929L75.7071 43.7071Z" fill="#E5ECF1"/>
<path d="M114.293 40.2929C114.923 40.9229 114.477 42 113.586 42H96C95.4477 42 95 41.5523 95 41V23.4142C95 22.5233 96.0771 22.0771 96.7071 22.7071L114.293 40.2929Z" fill="#E5ECF1"/>
<path d="M33.2929 43.7071C33.9229 43.0771 33.4767 42 32.5858 42H15C14.4477 42 14 42.4477 14 43V60.5858C14 61.4767 15.0771 61.9229 15.7071 61.2929L33.2929 43.7071Z" fill="#E5ECF1"/>
<path d="M-5.29289 40.2929C-5.92286 40.9229 -5.47669 42 -4.58579 42H13C13.5523 42 14 41.5523 14 41V23.4142C14 22.5233 12.9229 22.0771 12.2929 22.7071L-5.29289 40.2929Z" fill="#E5ECF1"/>
<path d="M21.1128 134.113C21.7428 134.743 22.8199 134.297 22.8199 133.406V115.82C22.8199 115.268 22.3722 114.82 21.8199 114.82L4.23416 114.82C3.34326 114.82 2.89709 115.897 3.52705 116.527L21.1128 134.113Z" fill="#E82F31"/>
<mask id="path-6-inside-1_750_531" fill="white">
<rect x="14" y="83" width="57.5796" height="57.5796" rx="1" transform="rotate(-45 14 83)"/>
</mask>
<rect x="14" y="83" width="57.5796" height="57.5796" rx="1" transform="rotate(-45 14 83)" stroke="#E5ECF1" stroke-width="30" mask="url(#path-6-inside-1_750_531)"/>
<path d="M33 20.3081V2.38553C33 1.49871 34.0687 1.05071 34.7011 1.67244L53.9314 20.579C54.3223 20.9633 54.9496 20.9613 55.3381 20.5746L74.2944 1.6984C74.925 1.07049 76 1.51711 76 2.407V20.3118C76 20.5778 75.8941 20.8328 75.7056 21.0204L55.3381 41.3018C54.9496 41.6886 54.3223 41.6906 53.9314 41.3063L33.2989 21.0212C33.1077 20.8332 33 20.5762 33 20.3081Z" fill="#E5ECF1"/>
<path d="M-7.69192 104H-25.6145C-26.5013 104 -26.9493 102.931 -26.3276 102.299L-7.42096 83.0686C-7.03666 82.6777 -7.03866 82.0504 -7.42543 81.6619L-26.3016 62.7056C-26.9295 62.075 -26.4829 61 -25.593 61H-7.68818C-7.42223 61 -7.16723 61.1059 -6.97958 61.2944L13.3018 81.6619C13.6886 82.0504 13.6906 82.6777 13.3063 83.0686L-6.97884 103.701C-7.16684 103.892 -7.42376 104 -7.69192 104Z" fill="#E5ECF1"/>
<path d="M116.692 104H134.614C135.501 104 135.949 102.931 135.328 102.299L116.421 83.0686C116.037 82.6777 116.039 82.0504 116.425 81.6619L135.302 62.7056C135.93 62.075 135.483 61 134.593 61H116.688C116.422 61 116.167 61.1059 115.98 61.2944L95.6982 81.6619C95.3114 82.0504 95.3094 82.6777 95.6937 83.0686L115.979 103.701C116.167 103.892 116.424 104 116.692 104Z" fill="#E5ECF1"/>
</svg>
