<svg width="353" height="339" viewBox="0 0 353 339" fill="none" xmlns="http://www.w3.org/2000/svg">
<path d="M316.945 2.41421C316.945 1.52331 315.867 1.07714 315.237 1.70711L281.707 35.2374C281.317 35.628 281.317 36.2611 281.707 36.6516L315.237 70.182C315.867 70.8119 316.945 70.3658 316.945 69.4749V2.41421Z" fill="#E82F31"/>
<mask id="path-2-inside-1_783_466" fill="white">
<rect x="84" y="175.953" width="120" height="120" rx="1" transform="rotate(-45 84 175.953)"/>
</mask>
<rect x="84" y="175.953" width="120" height="120" rx="1" transform="rotate(-45 84 175.953)" stroke="#E5ECF1" stroke-width="60" mask="url(#path-2-inside-1_783_466)"/>
<path d="M293.293 299.707C293.923 299.077 293.477 298 292.586 298H255C254.448 298 254 298.448 254 299V336.586C254 337.477 255.077 337.923 255.707 337.293L293.293 299.707Z" fill="#027C75"/>
<path d="M215.707 91.7071C215.077 91.0771 215.523 90 216.414 90H254C254.552 90 255 90.4477 255 91V128.586C255 129.477 253.923 129.923 253.293 129.293L215.707 91.7071Z" fill="#E5ECF1"/>
<path d="M294.293 88.2929C294.923 88.9229 294.477 90 293.586 90H256C255.448 90 255 89.5523 255 89V51.4142C255 50.5233 256.077 50.0771 256.707 50.7071L294.293 88.2929Z" fill="#E5ECF1"/>
<path d="M122.293 91.7071C122.923 91.0771 122.477 90 121.586 90H84C83.4477 90 83 90.4477 83 91V128.586C83 129.477 84.0771 129.923 84.7071 129.293L122.293 91.7071Z" fill="#E5ECF1"/>
<path d="M43.7071 88.2929C43.0771 88.9229 43.5233 90 44.4142 90H82C82.5523 90 83 89.5523 83 89V51.4142C83 50.5233 81.9229 50.0771 81.2929 50.7071L43.7071 88.2929Z" fill="#E5ECF1"/>
<path d="M296.902 133L335.493 133C336.38 133 336.828 134.068 336.207 134.701L296.086 175.569C295.702 175.96 295.704 176.586 296.09 176.974L336.181 217.295C336.808 217.926 336.361 219 335.472 219L296.899 219C296.633 219 296.377 218.894 296.19 218.705L254.697 176.974C254.31 176.586 254.308 175.96 254.692 175.569L296.189 133.299C296.377 133.108 296.634 133 296.902 133Z" fill="#E5ECF1"/>
<path d="M40.974 219L2.38307 219C1.49661 219 1.04845 217.932 1.66947 217.299L41.7908 176.431C42.1744 176.04 42.1724 175.414 41.7863 175.026L1.69538 134.705C1.06818 134.074 1.51497 133 2.4045 133L40.9777 133C41.2439 133 41.4992 133.106 41.6869 133.295L83.1799 175.026C83.566 175.414 83.568 176.04 83.1844 176.431L41.6876 218.701C41.4995 218.892 41.2424 219 40.974 219Z" fill="#E5ECF1"/>
<path d="M126 47.974V9.38307C126 8.49661 127.068 8.04845 127.701 8.66947L168.569 48.7908C168.96 49.1744 169.586 49.1724 169.974 48.7863L210.295 8.69538C210.926 8.06819 212 8.51497 212 9.4045V47.9777C212 48.2439 211.894 48.4992 211.705 48.6869L169.974 90.1799C169.586 90.566 168.96 90.568 168.569 90.1844L126.299 48.6876C126.108 48.4995 126 48.2424 126 47.974Z" fill="#E5ECF1"/>
</svg>
