<svg width="34" height="34" viewBox="0 0 34 34" fill="none" xmlns="http://www.w3.org/2000/svg">
	<rect x="0.75" y="0.75" width="32.5" height="32.5" rx="1.25" stroke="#E82F31" stroke-width="1.5"/>
	<path d="M13.6931 24.0079L13.6931 24.0079C13.8958 24.2003 14.173 24.31 14.4643 24.31L13.6931 24.0079ZM13.6931 24.0079L6.56292 17.2439L6.56288 17.2439M13.6931 24.0079L6.56288 17.2439M6.56288 17.2439C6.14574 16.8483 6.14566 16.2124 6.56293 15.8165L6.56298 15.8165M6.56288 17.2439L6.56298 15.8165M6.56298 15.8165C6.98742 15.4136 7.68116 15.4134 8.10548 15.8164L8.10559 15.8165M6.56298 15.8165L8.10559 15.8165M8.10559 15.8165L14.2374 21.6331L14.4195 21.8059M8.10559 15.8165L14.4195 21.8059M14.4195 21.8059L14.5916 21.6231M14.4195 21.8059L14.5916 21.6231M14.5916 21.6231L26.8523 8.59411C27.251 8.17073 27.9433 8.13169 28.3927 8.51222C28.8343 8.88645 28.8706 9.52145 28.479 9.9375L28.4789 9.93752M14.5916 21.6231L28.4789 9.93752M28.4789 9.93752L15.2774 23.9657L15.2774 23.9657M28.4789 9.93752L15.2774 23.9657M15.2774 23.9657C15.0804 24.1751 14.7981 24.3011 14.496 24.3095L15.2774 23.9657Z" fill="#E82F31" stroke="white" stroke-width="0.5"/>
</svg>