<svg width="128" height="40" viewBox="0 0 128 40" fill="none" xmlns="http://www.w3.org/2000/svg">
<path d="M53.7896 25.7487C53.7896 29.3954 50.6104 30.9935 46.7682 30.9935H38.0977L41.1026 14.5322H49.0676C52.6293 14.5322 54.4569 15.9646 54.4569 18.4595C54.4569 20.3636 53.4241 21.7534 51.775 22.527C53.0586 23.139 53.7896 24.2441 53.7896 25.7487ZM48.7658 25.6084C48.7658 24.8774 48.1878 24.5246 47.5205 24.5246H44.2563L43.7845 27.113H47.0487C48.039 27.113 48.7658 26.62 48.7658 25.6084ZM45.3741 18.4127L44.9236 20.8566H47.4992C48.6596 20.8566 49.1738 20.3168 49.1738 19.4243C49.1738 18.7442 48.6808 18.4127 47.8435 18.4127H45.3741Z" fill="white"/>
<path d="M56.8428 14.5322H61.9091L59.699 26.688H66.4824L65.6876 30.9935H53.8379L56.8428 14.5322Z" fill="white"/>
<path d="M78.5925 28.1246H72.8589L71.3585 30.9935H66.0117L75.5876 14.5322H80.5689L84.1306 30.9935H79.0855L78.5925 28.1246ZM77.8827 24.1251L77.1517 19.9131L74.9415 24.1251H77.8827V24.1251Z" fill="white"/>
<path d="M91.8843 25.0219L90.809 30.9935H85.7427L86.8393 24.9496L83.082 14.5322H88.1696L90.2097 20.2233L94.3962 14.5322H99.4838L91.8843 25.0219Z" fill="white"/>
<path d="M112.435 17.9409L104.104 26.688H111.189L110.395 30.9935H96.5898L97.2146 27.5848L105.545 18.8377H99.0167L99.8115 14.5322H113.055L112.435 17.9409Z" fill="white"/>
<path d="M119.096 18.7184L118.751 20.648H125.105L124.374 24.6475H117.999L117.612 26.8109H125.148L124.374 30.9974H111.883L114.888 14.5361H127.103L126.329 18.7226H119.096V18.7184Z" fill="white"/>
<path d="M19.0287 15.2212L19.0372 15.2L24.7666 6.35942L7.76129 0.0222778L2.02344 8.87982L4.99437 18.7744L10.7322 9.91689L12.6193 10.6182L6.89849 19.4842L16.3426 23.0077L11.7523 30.0801L14.736 40.0002L28.4941 18.7532L19.0287 15.2212Z" fill="white"/>
<path d="M13.2991 24.0604L2.99218 39.9988L0 30.1L5.73785 21.2424L13.2991 24.0604Z" fill="white"/>
<path d="M31.2613 0L22.0892 14.1279L22.085 14.1491L29.6419 16.967L34.2322 9.89461L31.2613 0Z" fill="white"/>
</svg>
