<svg width="42" height="42" viewBox="0 0 42 42" fill="none" xmlns="http://www.w3.org/2000/svg">
<g clip-path="url(#clip0_116_32713)">
<path d="M35 10.5H31.185C31.3775 9.9575 31.5 9.3625 31.5 8.75C31.5 5.845 29.155 3.5 26.25 3.5C24.4125 3.5 22.82 4.445 21.875 5.8625L21 7.035L20.125 5.845C19.18 4.445 17.5875 3.5 15.75 3.5C12.845 3.5 10.5 5.845 10.5 8.75C10.5 9.3625 10.6225 9.9575 10.815 10.5H7C5.0575 10.5 3.5175 12.0575 3.5175 14L3.5 33.25C3.5 35.1925 5.0575 36.75 7 36.75H35C36.9425 36.75 38.5 35.1925 38.5 33.25V14C38.5 12.0575 36.9425 10.5 35 10.5ZM26.25 7C27.2125 7 28 7.7875 28 8.75C28 9.7125 27.2125 10.5 26.25 10.5C25.2875 10.5 24.5 9.7125 24.5 8.75C24.5 7.7875 25.2875 7 26.25 7ZM15.75 7C16.7125 7 17.5 7.7875 17.5 8.75C17.5 9.7125 16.7125 10.5 15.75 10.5C14.7875 10.5 14 9.7125 14 8.75C14 7.7875 14.7875 7 15.75 7ZM35 33.25H7V29.75H35V33.25ZM35 24.5H7V14H15.89L12.25 18.9525L15.085 21L19.25 15.33L21 12.95L22.75 15.33L26.915 21L29.75 18.9525L26.11 14H35V24.5Z" fill="#FF9100"/>
</g>
<defs>
<clipPath id="clip0_116_32713">
<rect width="42" height="42" fill="white"/>
</clipPath>
</defs>
</svg>
