<svg width="33" height="44" viewBox="0 0 33 44" fill="none" xmlns="http://www.w3.org/2000/svg">
<path d="M21.9803 8.95996C24.1803 8.95996 25.9803 7.15996 25.9803 4.95996C25.9803 2.75996 24.1803 0.959961 21.9803 0.959961C19.7803 0.959961 17.9803 2.75996 17.9803 4.95996C17.9803 7.15996 19.7803 8.95996 21.9803 8.95996ZM14.7803 36.76L16.7803 27.96L20.9803 31.96V43.96H24.9803V28.96L20.7803 24.96L21.9803 18.96C24.5803 21.96 28.5803 23.96 32.9803 23.96V19.96C29.1803 19.96 25.9803 17.96 24.3803 15.16L22.3803 11.96C21.5803 10.76 20.3803 9.95996 18.9803 9.95996C18.3803 9.95996 17.9803 10.16 17.3803 10.16L6.98027 14.56V23.96H10.9803V17.16L14.5803 15.76L11.3803 31.96L1.58027 29.96L0.780273 33.96L14.7803 36.76Z" fill="white"/>
</svg>
