<svg width="128" height="40" viewBox="0 0 128 40" fill="none" xmlns="http://www.w3.org/2000/svg">
<path d="M53.7896 25.7484C53.7896 29.3951 50.6104 30.9932 46.7682 30.9932H38.0977L41.1026 14.532H49.0676C52.6293 14.532 54.4569 15.9643 54.4569 18.4592C54.4569 20.3633 53.4241 21.7532 51.775 22.5267C53.0586 23.1388 53.7896 24.2438 53.7896 25.7484ZM48.7658 25.6082C48.7658 24.8771 48.1878 24.5243 47.5205 24.5243H44.2563L43.7845 27.1128H47.0487C48.039 27.1128 48.7658 26.6197 48.7658 25.6082ZM45.3741 18.4125L44.9236 20.8564H47.4992C48.6596 20.8564 49.1738 20.3166 49.1738 19.424C49.1738 18.744 48.6808 18.4125 47.8435 18.4125H45.3741Z" fill="white"/>
<path d="M56.8448 14.532H61.9111L59.701 26.6877H66.4844L65.6896 30.9932H53.8398L56.8448 14.532Z" fill="white"/>
<path d="M78.5925 28.1243H72.8589L71.3585 30.9932H66.0117L75.5876 14.532H80.5689L84.1306 30.9932H79.0855L78.5925 28.1243ZM77.8827 24.1248L77.1517 19.9128L74.9415 24.1248H77.8827Z" fill="white"/>
<path d="M91.8843 25.0216L90.809 30.9932H85.7427L86.8393 24.9494L83.082 14.532H88.1696L90.2097 20.2231L94.3962 14.532H99.4838L91.8843 25.0216Z" fill="white"/>
<path d="M112.435 17.9407L104.104 26.6877H111.189L110.395 30.9932H96.5898L97.2146 27.5845L105.545 18.8375H99.0167L99.8115 14.532H113.055L112.435 17.9407Z" fill="white"/>
<path d="M119.096 18.7181L118.751 20.6478H125.105L124.374 24.6473H117.999L117.612 26.8106H125.148L124.374 30.9972H111.883L114.888 14.5359H127.103L126.329 18.7224H119.096V18.7181Z" fill="white"/>
<path d="M19.0287 15.2212L19.0372 15.1999L24.7666 6.35936L7.76129 0.0222168L2.02344 8.87976L4.99437 18.7744L10.7322 9.91683L12.6193 10.6181L6.89849 19.4842L16.3426 23.0076L11.7523 30.0801L14.736 40.0002L28.4941 18.7531L19.0287 15.2212Z" fill="url(#paint0_linear_4737_45294)"/>
<path d="M13.2991 24.0604L2.99218 39.9988L0 30.1L5.73785 21.2424L13.2991 24.0604Z" fill="url(#paint1_linear_4737_45294)"/>
<path d="M31.2623 0L22.0902 14.1279L22.0859 14.1491L29.6429 16.967L34.2332 9.89461L31.2623 0Z" fill="url(#paint2_linear_4737_45294)"/>
<defs>
<linearGradient id="paint0_linear_4737_45294" x1="-8.75794" y1="31.1918" x2="45.0004" y2="1.14687" gradientUnits="userSpaceOnUse">
<stop stop-color="#E82A10"/>
<stop offset="1" stop-color="#FF1E00"/>
</linearGradient>
<linearGradient id="paint1_linear_4737_45294" x1="-5.79502" y1="36.296" x2="47.8389" y2="6.32055" gradientUnits="userSpaceOnUse">
<stop stop-color="#E82A10"/>
<stop offset="1" stop-color="#FF1E00"/>
</linearGradient>
<linearGradient id="paint2_linear_4737_45294" x1="-9.0205" y1="30.5457" x2="44.6129" y2="0.570623" gradientUnits="userSpaceOnUse">
<stop stop-color="#E82A10"/>
<stop offset="1" stop-color="#FF1E00"/>
</linearGradient>
</defs>
</svg>
