<svg width="48" height="48" viewBox="0 0 48 48" fill="none" xmlns="http://www.w3.org/2000/svg">
<path d="M39.6595 15L35.1195 10.46C35.2595 9.62 35.4795 8.84 35.7595 8.16C35.9195 7.8 35.9995 7.42 35.9995 7C35.9995 5.34 34.6595 4 32.9995 4C29.7195 4 26.8195 5.58 24.9995 8H14.9995C8.91951 8 3.99951 12.92 3.99951 19C3.99951 25.08 8.99951 42 8.99951 42H19.9995V38H23.9995V42H34.9995L38.3595 30.82L43.9995 28.94V15H39.6595ZM25.9995 18H15.9995V14H25.9995V18ZM31.9995 22C30.8995 22 29.9995 21.1 29.9995 20C29.9995 18.9 30.8995 18 31.9995 18C33.0995 18 33.9995 18.9 33.9995 20C33.9995 21.1 33.0995 22 31.9995 22Z" fill="white"/>
</svg>
